<?xml version="1.0" encoding="utf-8"?>
<!DOCTYPE svg PUBLIC "-//W3C//DTD SVG 1.1//EN" "http://www.w3.org/Graphics/SVG/1.1/DTD/svg11.dtd">
<svg version="1.1" id="图形" xmlns="http://www.w3.org/2000/svg" xmlns:xlink="http://www.w3.org/1999/xlink" x="0px" y="0px" width="1150px" height="1024px" viewBox="0 0 1150 1024" enable-background="new 0 0 1150 1024" xml:space="preserve">
  <path fill="#272636" d="M975.872 536.544q36.864-6.144 69.12-24.576t55.296-45.568 36.352-61.952 13.312-73.728q0-43.008-16.384-81.408t-44.544-66.56-66.56-44.544-81.408-16.384q-38.912 0-74.24 13.824t-62.976 38.4q-17.408-19.456-37.888-36.352t-43.008-31.232l-455.68 0q-44.032 27.648-78.848 64.512t-61.44 77.824-46.08 84.48-32.768 84.48q-31.744 95.232-43.008 199.68l984.064 0q-1.024-10.24-3.072-22.528-2.048-11.264-4.096-25.6t-6.144-32.768zM941.056 203.744q26.624 0 49.664 9.728t40.448 27.136 27.648 40.448 10.24 49.664q0 24.576-8.704 46.08t-24.064 38.4-35.84 28.16-44.032 14.336q-15.36-52.224-39.936-109.056t-61.44-111.104q35.84-33.792 86.016-33.792zM898.048 41.952q26.624 0 45.568-18.432t18.944-45.056-18.944-45.568-45.568-18.944l-769.024 0q-26.624 0-45.568 18.944t-18.944 45.568 18.944 45.056 45.568 18.432l769.024 0z" transform="translate(0, 812) scale(1, -1)"/>
</svg>
