<?xml version="1.0" encoding="utf-8"?>
<!DOCTYPE svg PUBLIC "-//W3C//DTD SVG 1.1//EN" "http://www.w3.org/Graphics/SVG/1.1/DTD/svg11.dtd">
<svg version="1.1" id="图形" xmlns="http://www.w3.org/2000/svg" xmlns:xlink="http://www.w3.org/1999/xlink" x="0px" y="0px" width="1024px" height="1024px" viewBox="0 0 1024 1024" enable-background="new 0 0 1024 1024" xml:space="preserve">
  <path fill="#272636" d="M832.191808 428.383616l0-128.895105-70.585415 0-53.194805-511.488511-389.754246 0-55.240759 511.488511-71.608392 0 0 128.895105 55.240759 0 65.470529 127.872128 199.480519 0 0 67.516484q0 16.367632 9.206793 38.873127t25.574426 42.965035 39.384615 34.781219 50.637363 14.321678l136.055944 0 0-70.585415-129.918082 0q-34.781219 0-49.614386-14.833167t-14.833167-47.568432l0-65.470529 121.734266 0 65.470529-127.872128 66.493506 0z" transform="translate(0, 812) scale(1, -1)"/>
</svg>
