<?xml version="1.0" encoding="utf-8"?>
<!DOCTYPE svg PUBLIC "-//W3C//DTD SVG 1.1//EN" "http://www.w3.org/Graphics/SVG/1.1/DTD/svg11.dtd">
<svg version="1.1" id="图形" xmlns="http://www.w3.org/2000/svg" xmlns:xlink="http://www.w3.org/1999/xlink" x="0px" y="0px" width="1024px" height="1024px" viewBox="0 0 1024 1024" enable-background="new 0 0 1024 1024" xml:space="preserve">
  <path fill="#272636" d="M690.176 695.264q72.704 28.672 120.832 18.432t77.312-39.936 40.448-69.12 10.24-70.144q-1.024-20.48-1.536-40.448t-5.12-43.008-16.896-51.712-36.352-66.56-62.464-88.064-95.744-116.736q-79.872-92.16-140.288-150.016t-111.104-90.112-95.744-44.032-93.184-11.776q-57.344-1.024-92.672 19.456t-55.296 49.152-27.136 59.392-8.192 51.2q-1.024 21.504-1.024 57.344t17.92 87.552 61.952 119.296 132.096 151.552q60.416 57.344 103.936 95.744t75.776 64.512 56.832 41.472 46.592 26.112 45.056 19.456 53.76 20.992zM759.808 493.536q14.336 12.288 24.064 34.304t17.92 43.52q8.192 25.6 15.36 53.248l-62.464-5.12q0-12.288-4.096-24.576-4.096-11.264-12.288-24.064t-22.528-27.136q-15.36-14.336-33.28-10.752t-36.864 9.728-38.912 8.192-39.424-13.312-22.016-37.888-0.512-46.592 1.536-46.08-15.872-35.328-32.256-11.776-34.304 6.144-34.304 5.12-31.232-14.848q-28.672-30.72-35.84-57.856t-7.168-49.664l0-43.008q0-18.432-15.36-31.744t-34.816-13.824-40.96 1.536-43.52 0.512-42.496-16.896-26.112-46.592-4.608-61.952q1.024-36.864 9.216-77.824l72.704-4.096q-13.312 25.6-18.432 49.152-5.12 20.48-3.072 41.984t19.456 37.888q17.408 15.36 36.352 15.36t38.912-3.072 40.448-1.536 41.984 20.992 28.16 45.568 8.192 51.712 3.584 47.616 14.336 32.256q17.408 16.384 34.816 14.336t35.84-7.68 37.376-7.168 39.424 16.896 23.552 42.496 1.024 47.616-3.072 44.544 11.264 33.28 30.208 11.776 37.888-3.584 38.912-3.584 33.28 11.776z" transform="translate(0, 812) scale(1, -1)"/>
</svg>
