<?xml version="1.0" encoding="utf-8"?>
<!DOCTYPE svg PUBLIC "-//W3C//DTD SVG 1.1//EN" "http://www.w3.org/Graphics/SVG/1.1/DTD/svg11.dtd">
<svg version="1.1" id="图形" xmlns="http://www.w3.org/2000/svg" xmlns:xlink="http://www.w3.org/1999/xlink" x="0px" y="0px" width="1024px" height="1024px" viewBox="0 0 1024 1024" enable-background="new 0 0 1024 1024" xml:space="preserve">
  <path fill="#272636" d="M27.648 312.288q25.6 3.072 66.56 4.096t94.72-3.072 118.784-15.872 137.728-36.352q75.776-24.576 146.944-56.832t132.096-65.024 109.056-61.952 76.8-48.64q-18.432-26.624-59.392-52.736t-103.424-33.28q-41.984-5.12-87.552 10.752t-90.624 37.376-89.088 41.984-81.92 26.624q-38.912 6.144-76.288 7.168t-71.68 2.56-66.048 7.168-58.368 20.992q-21.504 12.288-41.472 39.424t-34.816 59.392-21.504 63.488-0.512 52.736zM1015.808 168.928q1.024-29.696-7.168-56.32t-23.552-41.472-36.352-12.288-43.52 30.208-69.12 56.832-103.424 56.832-117.76 52.736-112.128 45.568q-102.4 40.96-183.808 54.272t-147.968 17.408q-27.648 1.024-56.832-0.512t-53.248-0.512-39.424 8.192-14.336 25.6q1.024 12.288 10.752 32.768t25.6 44.032 36.352 48.64 42.496 46.08 44.544 35.84 43.008 18.944q44.032 9.216 88.576 14.848t96.768 2.56 117.248-17.92 151.04-47.616q54.272-20.48 101.376-53.76t86.016-72.192 68.608-81.408 50.688-81.92 32.768-72.192 12.8-53.248zM237.568 415.712q16.384 15.36 33.792 29.696 14.336 12.288 30.208 26.112t28.16 24.064q17.408 14.336 43.52 28.672t49.664 25.6q27.648 12.288 57.344 24.576l-96.256 17.408q-22.528-9.216-45.056-20.48-19.456-9.216-42.496-22.528t-42.496-28.672q-15.36-12.288-30.72-27.648l-30.72-30.72q-16.384-17.408-30.72-33.792zM463.872 367.584q12.288 13.312 25.6 26.624 11.264 11.264 24.576 23.552t26.624 21.504q14.336 11.264 32.256 22.528t32.256 19.456q17.408 10.24 34.816 18.432l-53.248 26.624q-20.48-7.168-39.936-17.408-17.408-8.192-35.84-19.968t-32.768-25.088-28.16-26.112-25.088-24.064q-13.312-12.288-24.576-23.552zM656.384 303.072q8.192 9.216 18.432 19.456 8.192 8.192 19.456 18.944t22.528 22.016q13.312 12.288 27.648 23.04t26.624 18.944q14.336 9.216 27.648 16.384l-54.272 25.6q-14.336-3.072-29.696-9.216-13.312-5.12-28.16-13.824t-28.16-23.04q-14.336-14.336-26.112-27.136t-20.992-24.064q-11.264-12.288-19.456-24.576zM832.512 292.832q8.192 8.192 18.944 15.872t19.968 12.8q11.264 6.144 21.504 11.264l-41.984 20.48q-11.264-3.072-22.528-8.192-10.24-5.12-22.528-11.776t-24.576-17.92q-23.552-20.48-35.84-35.84-7.168-9.216-13.312-17.408l50.176-16.384q8.192 6.144 17.408 14.336 15.36 14.336 32.768 32.768zM935.936 198.624q7.168 4.096 12.288 10.24t8.192 11.264q4.096 6.144 6.144 13.312l-34.816 28.672-10.24-5.12q-5.12-3.072-10.752-7.168t-11.776-12.288q-7.168-8.192-12.288-14.336t-10.24-10.24q-5.12-5.12-9.216-8.192l35.84-33.792q5.12 5.12 11.264 10.24 5.12 4.096 11.264 8.704t14.336 8.704z" transform="translate(0, 812) scale(1, -1)"/>
</svg>
