<?xml version="1.0" encoding="utf-8"?>
<!DOCTYPE svg PUBLIC "-//W3C//DTD SVG 1.1//EN" "http://www.w3.org/Graphics/SVG/1.1/DTD/svg11.dtd">
<svg version="1.1" id="图形" xmlns="http://www.w3.org/2000/svg" xmlns:xlink="http://www.w3.org/1999/xlink" x="0px" y="0px" width="1024px" height="1024px" viewBox="0 0 1024 1024" enable-background="new 0 0 1024 1024" xml:space="preserve">
  <path fill="#272636" d="M899.623744 578.210046q25.249315 0 46.757991-9.351598t37.873973-25.249315 25.716895-37.406393 9.351598-45.822831-9.351598-45.822831-25.716895-37.406393-37.873973-25.249315-46.757991-9.351598q-35.536073 0-64.526027 18.703196l-13.092237-13.092237q8.416438-14.027397 13.559817-29.925114t5.143379-33.665753q0-24.314155-9.351598-45.822831t-25.716895-37.406393-38.341553-25.249315-47.225571-9.351598q-33.665753 0-61.720548 17.768037l-14.027397-14.962557q7.481279-13.092237 12.157078-28.522374t4.675799-32.263014q0-24.314155-9.351598-45.355251t-25.716895-36.938813-37.873973-25.249315-46.757991-9.351598q-31.795434 0-59.850228 14.962557l-217.892237-218.827397-46.757991 42.082192 220.697717 219.762557q-15.897717 27.119635-15.897717 58.915068 0 24.314155 9.351598 45.822831t25.716895 37.406393 37.873973 25.249315 46.757991 9.351598q30.860274 0 57.979909-14.962557l15.897717 15.897717q-14.962557 27.119635-14.962557 57.044749 0 24.314155 9.351598 45.822831t25.716895 37.406393 38.341553 25.249315 46.290411 9.351598q15.897717 0 29.925114-3.740639t27.119635-10.286758l16.832877 16.832877q-14.027397 25.249315-14.027397 55.174429 0 24.314155 9.351598 45.822831t25.716895 37.406393 37.873973 25.249315 46.757991 9.351598zM361.906849 225.654795q-32.730594 0-58.915068 15.897717l-218.827397-218.827397-45.822831 42.082192 219.762557 219.762557q-15.897717 26.184475-15.897717 58.915068 0 24.314155 9.351598 45.355251t25.716895 36.938813 38.341553 25.249315 46.290411 9.351598q32.730594 0 57.979909-14.027397l16.832877 15.897717q-14.962557 24.314155-14.962557 56.109589 0 24.314155 9.351598 45.822831t25.716895 37.406393 37.873973 25.249315 46.757991 9.351598q29.925114 0 56.109589-13.092237l16.832877 16.832877q-6.546119 12.157078-10.286758 25.716895t-3.740639 28.522374q0 24.314155 9.351598 45.822831t25.716895 37.406393 38.341553 25.249315 46.290411 9.351598q25.249315 0 47.225571-9.351598t38.341553-25.249315 25.716895-37.406393 9.351598-45.822831-9.351598-45.355251-25.716895-36.938813-38.341553-25.249315-47.225571-9.351598q-34.600913 0-64.526027 17.768037l-13.092237-13.092237q18.703196-27.119635 18.703196-63.590868 0-24.314155-9.351598-45.355251t-25.716895-36.938813-37.873973-25.249315-46.757991-9.351598q-34.600913 0-62.655708 16.832877l-14.027397-14.027397q17.768037-28.054795 17.768037-60.785388 0-24.314155-9.351598-45.822831t-25.716895-37.406393-38.341553-25.249315-47.225571-9.351598z" transform="translate(0, 812) scale(1, -1)"/>
</svg>
