<?xml version="1.0" encoding="utf-8"?>
<!DOCTYPE svg PUBLIC "-//W3C//DTD SVG 1.1//EN" "http://www.w3.org/Graphics/SVG/1.1/DTD/svg11.dtd">
<svg version="1.1" id="图形" xmlns="http://www.w3.org/2000/svg" xmlns:xlink="http://www.w3.org/1999/xlink" x="0px" y="0px" width="1024px" height="1024px" viewBox="0 0 1024 1024" enable-background="new 0 0 1024 1024" xml:space="preserve">
  <path fill="#272636" d="M941.056 434.144q20.48-66.56 20.48-135.168 0-93.184-35.328-174.592t-96.256-142.336-142.848-96.256-175.104-35.328-174.592 35.328-142.336 96.256-96.256 142.336-35.328 174.592 35.328 175.104 96.256 142.848 142.336 96.256 174.592 35.328q63.488 0 121.344-16.896t108.032-46.592q-17.408-21.504-27.648-48.128t-10.24-57.344q0-33.792 12.8-63.488t34.816-52.224 52.224-35.328 64-12.8q20.48 0 38.4 5.12t35.328 13.312zM349.184 614.368q-13.312-2.048-20.992-13.312t-5.632-24.576 13.312-20.48 24.576-5.12l62.464 11.264q13.312 2.048 20.992 12.8t5.632 24.064-12.8 20.48-24.064 5.12zM238.592 323.552q11.264 8.192 13.312 20.992t-6.144 24.064-20.48 13.312-23.552-6.144l-52.224-36.864q-11.264-8.192-13.824-20.48t5.632-23.552 20.992-13.824 24.064 5.632zM320.512 300q0-39.936 14.848-75.264t40.96-61.44 61.44-40.96 75.264-14.848 74.752 14.848 60.928 40.96 40.96 61.44 14.848 75.264-14.848 74.752-40.96 60.928-60.928 40.96-74.752 14.848-75.264-14.848-61.44-40.96-40.96-60.928-14.848-74.752zM748.544-6.176q12.288 5.12 17.408 17.408t0 24.576-17.408 17.408-24.576 0l-59.392-24.576q-12.288-5.12-17.408-17.408t0-24.576 17.408-17.408 24.576 0zM893.952 221.152q5.12 12.288 0 24.576t-17.408 17.408l-59.392 24.576q-12.288 5.12-24.576-0.512t-17.408-17.92 0.512-24.064 17.92-16.896l58.368-24.576q12.288-5.12 24.576 0t17.408 17.408z" transform="translate(0, 812) scale(1, -1)"/>
</svg>
